{"accessors":[{"bufferView":0,"byteOffset":0,"componentType":5126,"count":382,"max":[1.29047310352325,0.378397911787033,0.9919673204422],"min":[-1.32638943195343,-0.39727512001991,-1.0080326795578],"normalized":false,"type":"VEC3"},{"bufferView":1,"byteOffset":0,"componentType":5126,"count":382,"max":[0.99992173910141,1,0.915005922317505,1],"min":[-0.99939966201782,-0.92480546236038,-0.93246078491211,1],"normalized":false,"type":"VEC4"},{"bufferView":2,"byteOffset":0,"componentType":5126,"count":382,"max":[0.694418549537659,0.999404549598694,1],"min":[-0.63136738538742,-0.99840980768204,-1],"normalized":false,"type":"VEC3"},{"bufferView":3,"byteOffset":0,"componentType":5126,"count":382,"max":[0.874998092651367,1],"min":[0.12498664855957,0],"normalized":false,"type":"VEC2"},{"bufferView":4,"byteOffset":0,"componentType":5123,"count":576,"max":[315],"min":[0],"normalized":false,"type":"SCALAR"}],"asset":{"generator":"Godot Engine v4.3.stable.official@77dcf97d82cbfe4e4615475fa52ca03da645dbd8","version":"2.0"},"bufferViews":[{"buffer":0,"byteLength":4584,"byteOffset":0,"byteStride":12,"target":34962},{"buffer":0,"byteLength":6112,"byteOffset":4584,"byteStride":16,"target":34962},{"buffer":0,"byteLength":4584,"byteOffset":10696,"byteStride":12,"target":34962},{"buffer":0,"byteLength":3056,"byteOffset":15280,"byteStride":8,"target":34962},{"buffer":0,"byteLength":1152,"byteOffset":18336,"target":34963}],"buffers":[{"byteLength":19488,"uri":"bone0.bin"}],"extensionsUsed":["GODOT_single_root"],"materials":[{"doubleSided":true,"extensions":{},"name":"Material","pbrMetallicRoughness":{"baseColorFactor":[0.99999988079071,0.655133962631226,0.655133962631226,1],"metallicFactor":0,"roughnessFactor":1}}],"meshes":[{"extras":{"targetNames":[]},"primitives":[{"attributes":{"NORMAL":2,"POSITION":0,"TANGENT":1,"TEXCOORD_0":3},"indices":4,"material":0,"mode":4}]}],"nodes":[{"children":[1],"name":"Bone"},{"mesh":0,"name":"Bone2","scale":[0.102787092328072,1.46252775192261,0.125835880637169]}],"scene":0,"scenes":[{"nodes":[0]}]}